<svg id="line" height="512" viewBox="0 0 64 64" width="512" xmlns="http://www.w3.org/2000/svg"><path d="m43.43 56.66 1.39 1a1 1 0 1 1 -1.2 1.6l-3.55-2.67a1 1 0 0 1 -.07-1.47l3.56-3.55a1 1 0 0 1 1.37 1.43l-1.66 1.67a20.33 20.33 0 0 0 4.18-39.33 1 1 0 0 1 .66-1.88 22.33 22.33 0 0 1 -4.68 43.22z" fill="#c4a2fc"/><path d="m41.37 13.87-2.66 2.67a1 1 0 0 1 -1.42-1.42l.78-.77a20.33 20.33 0 0 0 -4.18 39.33 1 1 0 1 1 -.67 1.88 22.34 22.34 0 0 1 5.15-43.28l-1.08-1.07a1 1 0 0 1 1.42-1.42l2.66 2.67a1 1 0 0 1 0 1.41z" fill="#c4a2fc"/><path d="m30.67 28.5v12a1 1 0 0 0 .59.91l9 4a1 1 0 0 0 .81 0l9-4a1 1 0 0 0 .6-.91v-12a1 1 0 0 0 -.6-.91l-9-4a1 1 0 0 0 -.81 0l-9 4a1 1 0 0 0 -.59.91z" fill="#c4a2fc"/><g fill="#151a6a"><path d="m47.67 7.5h-5a3 3 0 0 0 -3-3 3 3 0 0 0 -2 .78 2.91 2.91 0 0 0 -2-.78 3 3 0 0 0 -3 3h-13.67a3 3 0 0 0 -5-2.22 3 3 0 0 0 -2-.78 3 3 0 0 0 -3 3h-5a3 3 0 0 0 -3 3v34a3 3 0 0 0 3 3h43.67a3 3 0 0 0 3-3v-34a3 3 0 0 0 -3-3zm-8-1a1 1 0 0 1 1 1v3a1 1 0 0 1 -2 0v-3a1 1 0 0 1 1-1zm-5 1a1 1 0 0 1 1-1 1 1 0 0 1 1 1v3a1 1 0 0 1 -2 0zm-18.67-1a1 1 0 0 1 1 1v3a1 1 0 0 1 -2 0v-3a1 1 0 0 1 1-1zm-5 1a1 1 0 0 1 2 0v3a1 1 0 0 1 -2 0zm-7 2h5v1a3 3 0 0 0 3 3 3.15 3.15 0 0 0 2-.77 3.13 3.13 0 0 0 2 .77 3 3 0 0 0 3-3v-1h13.67v1a3 3 0 0 0 3 3 3.11 3.11 0 0 0 2-.77 3.11 3.11 0 0 0 2 .77 3 3 0 0 0 3-3v-1h5a1 1 0 0 1 1 1v7h-45.67v-7a1 1 0 0 1 1-1zm43.67 36h-43.67a1 1 0 0 1 -1-1v-25h45.67v25a1 1 0 0 1 -1 1z"/><path d="m16 25.5h-8a1 1 0 0 0 -1 1v8a1 1 0 0 0 1 1h8a1 1 0 0 0 1-1v-8a1 1 0 0 0 -1-1zm-1 8h-6v-6h6z"/><path d="m29.67 25.5h-7.67a1 1 0 0 0 -1 1v8a1 1 0 0 0 1 1h7.67a1 1 0 0 0 1-1v-8a1 1 0 0 0 -1-1zm-1 8h-5.67v-6h5.67z"/><path d="m44.67 25.5h-8a1 1 0 0 0 -1 1v8a1 1 0 0 0 1 1h8a1 1 0 0 0 1-1v-8a1 1 0 0 0 -1-1zm-1 8h-6v-6h6z"/></g></svg>