<svg xmlns="http://www.w3.org/2000/svg" viewBox="0 0 192 36"><g class="nc-icon-wrapper"><g id="carutos_1_" class="st0"><path class="st1" d="M56.89 12.24c1.12 0 2.09.29 2.92.86.83.57 1.38 1.36 1.66 2.37h5.67c-.5-2.44-1.67-4.35-3.49-5.73-1.82-1.39-4.06-2.08-6.72-2.08-2.13 0-4 .46-5.63 1.39a10.03 10.03 0 0 0-3.84 3.86c-.94 1.65-1.41 3.54-1.41 5.67s.47 4.02 1.41 5.67c.94 1.65 2.22 2.94 3.84 3.86 1.62.92 3.5 1.39 5.63 1.39 2.66 0 4.9-.71 6.72-2.14 1.82-1.43 2.98-3.32 3.49-5.67h-5.67c-.28 1.04-.83 1.83-1.66 2.39s-1.8.84-2.92.84c-1.48 0-2.74-.56-3.78-1.68-1.04-1.12-1.55-2.67-1.55-4.66 0-1.99.52-3.54 1.55-4.66 1.04-1.12 2.3-1.68 3.78-1.68zm30.54-2.35c-1.71-1.48-4.05-2.23-7.01-2.23-1.74 0-3.3.3-4.7.9-1.4.6-2.54 1.46-3.42 2.58-.88 1.12-1.39 2.44-1.53 3.95H76c.2-1.01.7-1.77 1.51-2.29s1.76-.78 2.86-.78c1.2 0 2.21.34 3.02 1.01.81.67 1.22 1.72 1.22 3.15v.5h-5.29c-3.02 0-5.29.6-6.8 1.81-1.51 1.2-2.27 2.77-2.27 4.7 0 1.15.28 2.2.84 3.15.56.95 1.41 1.72 2.56 2.29 1.15.57 2.62.86 4.41.86 1.74 0 3.16-.36 4.26-1.09 1.11-.73 1.97-1.65 2.58-2.77l.5 3.36h4.58v-12.8c.01-2.72-.84-4.82-2.55-6.3zm-4.56 13.9c-.85 1.01-2.05 1.51-3.59 1.51-1.01 0-1.82-.22-2.44-.67-.62-.45-.92-1.08-.92-1.89 0-.76.31-1.39.92-1.91.62-.52 1.64-.78 3.07-.78h4.58c-.23 1.49-.77 2.73-1.62 3.74zm16.49-11.72l-.5-3.91h-4.79V29h5.38v-9.49c0-1.6.26-2.84.78-3.74.52-.9 1.24-1.53 2.16-1.89.92-.36 1.97-.55 3.15-.55h1.51V7.66c-1.76 0-3.3.4-4.6 1.2-1.31.8-2.34 1.87-3.09 3.21zm24.99 6.85c0 1.9-.48 3.39-1.45 4.45s-2.21 1.6-3.72 1.6c-1.54 0-2.67-.48-3.4-1.43s-1.09-2.32-1.09-4.12V8.17h-5.38v11.76c0 3.14.71 5.52 2.14 7.14 1.43 1.62 3.43 2.44 6.01 2.44 1.65 0 3.09-.36 4.3-1.09a7.302 7.302 0 0 0 2.79-2.94l.42 3.53h4.75V8.17h-5.38v10.75zm17.21-16.34h-4.75l-.63 5.59h-3.57v4.49h3.57v9.07c0 2.72.66 4.61 1.97 5.67 1.32 1.06 3.07 1.6 5.25 1.6h3.65v-4.58h-2.6c-1.06 0-1.81-.19-2.25-.57-.43-.38-.65-1.07-.65-2.08v-9.11h5.63V8.17h-5.63V2.58zm24.09 6.47c-1.61-.92-3.41-1.39-5.4-1.39-2.02 0-3.83.46-5.44 1.39-1.61.92-2.89 2.21-3.84 3.84-.95 1.64-1.43 3.54-1.43 5.69 0 2.16.47 4.05 1.41 5.69.94 1.64 2.21 2.92 3.82 3.84 1.61.92 3.42 1.39 5.44 1.39 1.99 0 3.79-.46 5.42-1.39 1.62-.92 2.9-2.2 3.84-3.84.94-1.64 1.41-3.53 1.41-5.69 0-2.16-.47-4.05-1.41-5.69-.93-1.63-2.21-2.92-3.82-3.84zm-1.78 14.22c-1.04 1.05-2.25 1.57-3.65 1.57s-2.61-.52-3.63-1.57-1.53-2.61-1.53-4.68.51-3.63 1.53-4.68c1.02-1.05 2.25-1.58 3.67-1.58 1.37 0 2.58.53 3.61 1.58 1.04 1.05 1.55 2.61 1.55 4.68s-.52 3.63-1.55 4.68zm26.96-3.99c-.73-.8-1.7-1.4-2.92-1.81a41.65 41.65 0 0 0-4.01-1.11c-1.34-.31-2.42-.64-3.23-1.01-.81-.36-1.22-.85-1.22-1.47 0-.59.27-1.08.82-1.47.55-.39 1.32-.59 2.33-.59 2.02 0 3.18.77 3.49 2.31h5.08c-.28-2.02-1.15-3.6-2.63-4.75-1.47-1.15-3.44-1.72-5.9-1.72-2.66 0-4.72.63-6.2 1.89-1.47 1.26-2.2 2.81-2.2 4.66 0 1.01.24 1.86.71 2.54.48.69 1.1 1.25 1.87 1.68.77.43 1.62.79 2.54 1.07.92.28 1.83.52 2.73.71 1.4.31 2.49.62 3.28.95.78.32 1.18.93 1.18 1.83 0 .62-.27 1.16-.82 1.64-.55.48-1.41.71-2.58.71-1.18 0-2.14-.29-2.88-.86-.74-.57-1.2-1.27-1.36-2.08h-5.42c.17 1.4.67 2.63 1.51 3.7.84 1.06 1.96 1.9 3.36 2.5 1.4.6 3.02.9 4.87.9 1.79 0 3.35-.29 4.66-.88 1.32-.59 2.32-1.4 3.02-2.44.7-1.04 1.04-2.2 1.01-3.49 0-1.47-.36-2.61-1.09-3.41z" id="carutos" fill-rule="evenodd" clip-rule="evenodd" fill="#FFF"/></g><g id="Shape_36_1_" class="st0"><path class="st2" d="M18.02 25.38c-1.21.85-1.5 2.49-.64 3.68a2.739 2.739 0 0 0 3.77.62c1.21-.84 1.49-2.49.63-3.68-.87-1.19-2.55-1.46-3.76-.62zm7.26 2.88a5.59 5.59 0 0 1-2.37 3.84c-2.67 1.86-6.41 1.17-8.18-1.57-1.55-2.4-1.01-5.62 1.26-7.39 1.4-1.1 3.14-1.44 4.74-1.12 1.45.29 2.97-.06 4.17-.9l4.94-3.45.01-.01 6.13-4.28A4.69 4.69 0 0 0 38 9.33c-.09-1.86-.26-4.19-.51-5.32C33.06 1.9 28.04.57 22.8.15l-.01-.01C21.56.05 20.32 0 19.07 0 12.48 0 6.12 1.39.64 4.03.21 5.95 0 7.93 0 9.92c0 3.11.53 6.12 1.51 8.94l9.06-6.31c.46.54.9 1.11 1.31 1.69.46.62.89 1.26 1.3 1.91l-6.06 4.21c-2.25 1.57-2.69 4.68-.96 6.79 3.27 4 7.7 7.11 12.91 8.84 8.65-2.88 15.13-9.56 17.77-17.78l-9.3 6.48c-1.21.85-2.07 2.12-2.26 3.57zm-8.04-25.7c.31-.22.73-.19 1.01.06 1.29 1.17 2.65 2.69 3.93 4.45 1.35 1.86 2.42 3.7 3.12 5.35.15.34.04.73-.27.94l-1.67 1.16c-.77-1.91-1.98-4.02-3.37-5.93-1.33-1.83-2.89-3.56-4.41-4.88l1.66-1.15zm-4.11 16.99a.755.755 0 0 1 .08-.78l1.25-1.69c.19-.25.21-.59.05-.86-.51-.86-1.08-1.74-1.72-2.62-.58-.8-1.18-1.55-1.78-2.24-.21-.24-.54-.33-.85-.24l-2.01.59c-.28.08-.58.01-.79-.2-.43-.43-.87-.84-1.29-1.19l8.61-6c1.35 1.13 2.89 2.75 4.43 4.86 1.63 2.23 2.72 4.28 3.35 5.95l-8.59 5.98-.05-.06c-.2-.46-.43-.97-.69-1.5zm3.51-6.69c.9-.48 1.07-1.67.29-2.37-.41-.37-1.02-.47-1.54-.27-.98.4-1.24 1.6-.53 2.34.44.48 1.19.6 1.78.3z" id="Shape_36" fill-rule="evenodd" clip-rule="evenodd" fill="#D81324"/></g></g></svg>